<svg xmlns="http://www.w3.org/2000/svg"  viewBox="0 0 72 72" width="64px" height="64px" baseProfile="basic"><path fill="#060000" d="M36,12c13.234,0,24,10.766,24,24c0,13.234-10.766,24-24,24S12,49.234,12,36	C12,22.766,22.766,12,36,12z M46.362,32.878c0.781-0.781,0.781-2.047,0-2.828c-0.781-0.781-2.047-0.781-2.828,0l-9.121,9.121	l-5.103-5.103c-0.781-0.781-2.047-0.781-2.828,0c-0.781,0.781-0.781,2.047,0,2.828l6.517,6.517C33.374,43.789,33.883,44,34.413,44	s1.039-0.211,1.414-0.586L46.362,32.878z"/></svg>